<svg id="Capa_1" data-name="Capa 1" xmlns="http://www.w3.org/2000/svg" viewBox="0 0 409.6 408.62"><defs><style>.cls-1{fill:#fff;}</style></defs><path class="cls-1" d="M216.8,408.54h-24c-5.4-.64-10.82-1.19-16.21-2-40.38-5.69-76.08-21.79-106.65-48.73C34,326.13,11.43,286.64,3.15,239.29,1.8,231.61,1,223.83,0,216.1v-24c.62-5.24,1.14-10.5,1.88-15.73,5.64-40.14,21.28-76,48.37-106.18C99,15.87,160.2-7,232.67,1.72c40.75,4.89,76.6,21.76,107.32,49,35.81,31.7,58.22,71.09,66.46,118.28,1.34,7.68,2.12,15.46,3.15,23.19v24c-.25,1.4-.54,2.81-.73,4.22-1,7.38-1.55,14.83-2.93,22.12a199.56,199.56,0,0,1-55.51,105.31C319.83,378.59,283.05,398,240.1,405.4,232.38,406.72,224.57,407.51,216.8,408.54Zm124.62-86.83c61.68-69.82,62.26-186.42-21-256.1C239.27-2.28,117.32,13.46,56.05,101.85c-28.7,41.41-37.85,87.41-28.61,136.77C33.28,269.81,47,297.45,68.28,322c6-23.1,16.58-42.89,32-60a142.89,142.89,0,0,1,56.1-37.89c-45.92-33.16-47.3-91.5-17.79-126.42,30.58-36.2,83.58-41.46,120.46-11.61,18,14.54,28.77,33.54,31.15,56.53,3.52,33.86-9.57,60.78-36.74,81.34C298.84,242.4,327.94,274.78,341.42,321.71ZM208.12,384.6c4.3-.36,11.89-.72,19.42-1.65,34.18-4.21,64.52-17.49,91.24-39.08a4.64,4.64,0,0,0,1.5-3.55c-7.94-64.12-69.88-109.87-134.15-99.15A116.63,116.63,0,0,0,89.43,340a5.36,5.36,0,0,0,1.75,4.15C124.35,370.77,162.32,384.07,208.12,384.6ZM205,214.84c34.29-.2,62.05-27.91,62.09-62s-28.18-62.22-62.39-62.12-62.51,28.51-62.09,62.43C143,187.45,170.91,215,205,214.84Z" transform="translate(0 0.07)"/><path class="cls-1" d="M341.42,321.71C327.94,274.78,298.84,242.4,253.5,224c27.17-20.56,40.26-47.48,36.74-81.34-2.38-23-13.19-42-31.15-56.53C222.21,56.3,169.21,61.56,138.63,97.76,109.12,132.68,110.5,191,156.42,224.18a142.89,142.89,0,0,0-56.1,37.89c-15.46,17.07-26,36.86-32,60-21.27-24.58-35-52.22-40.84-83.41-9.24-49.36-.09-95.36,28.61-136.77C117.32,13.46,239.27-2.28,320.41,65.61,403.68,135.29,403.1,251.89,341.42,321.71Z" transform="translate(0 0.07)"/><path class="cls-1" d="M208.12,384.6c-45.8-.53-83.77-13.83-116.94-40.45A5.36,5.36,0,0,1,89.43,340a116.63,116.63,0,0,1,96.7-98.83c64.27-10.72,126.21,35,134.15,99.15a4.64,4.64,0,0,1-1.5,3.55c-26.72,21.59-57.06,34.87-91.24,39.08C220,383.88,212.42,384.24,208.12,384.6Z" transform="translate(0 0.07)"/><path class="cls-1" d="M205,214.84c-34,.2-61.95-27.39-62.39-61.67-.42-33.92,27.83-62.33,62.09-62.43s62.43,28,62.39,62.12S239.24,214.64,205,214.84Z" transform="translate(0 0.07)"/></svg>